<mxfile host="Electron" agent="Mozilla/5.0 (Windows NT 10.0; Win64; x64) AppleWebKit/537.36 (KHTML, like Gecko) draw.io/24.7.17 Chrome/128.0.6613.36 Electron/32.0.1 Safari/537.36" version="24.7.17">
  <diagram id="C5RBs43oDa-KdzZeNtuy" name="Page-1">
    <mxGraphModel dx="548" dy="352" grid="1" gridSize="10" guides="1" tooltips="1" connect="1" arrows="1" fold="1" page="1" pageScale="1" pageWidth="1250" pageHeight="1300" math="0" shadow="0">
      <root>
        <mxCell id="WIyWlLk6GJQsqaUBKTNV-0" />
        <mxCell id="WIyWlLk6GJQsqaUBKTNV-1" parent="WIyWlLk6GJQsqaUBKTNV-0" />
        <mxCell id="IxoI0bGfIbi6MGj2JMH9-40" style="edgeStyle=orthogonalEdgeStyle;rounded=0;orthogonalLoop=1;jettySize=auto;html=1;exitX=0.5;exitY=1;exitDx=0;exitDy=0;entryX=0.5;entryY=0;entryDx=0;entryDy=0;" parent="WIyWlLk6GJQsqaUBKTNV-1" source="WIyWlLk6GJQsqaUBKTNV-3" target="IxoI0bGfIbi6MGj2JMH9-38" edge="1">
          <mxGeometry relative="1" as="geometry" />
        </mxCell>
        <mxCell id="WIyWlLk6GJQsqaUBKTNV-3" value="start" style="rounded=1;whiteSpace=wrap;html=1;fontSize=12;glass=0;strokeWidth=1;shadow=0;" parent="WIyWlLk6GJQsqaUBKTNV-1" vertex="1">
          <mxGeometry x="226" y="30" width="120" height="40" as="geometry" />
        </mxCell>
        <mxCell id="WIyWlLk6GJQsqaUBKTNV-11" value="end" style="rounded=1;whiteSpace=wrap;html=1;fontSize=12;glass=0;strokeWidth=1;shadow=0;" parent="WIyWlLk6GJQsqaUBKTNV-1" vertex="1">
          <mxGeometry x="226" y="1230" width="120" height="40" as="geometry" />
        </mxCell>
        <mxCell id="IxoI0bGfIbi6MGj2JMH9-43" style="edgeStyle=orthogonalEdgeStyle;rounded=0;orthogonalLoop=1;jettySize=auto;html=1;exitX=1;exitY=0.5;exitDx=0;exitDy=0;" parent="WIyWlLk6GJQsqaUBKTNV-1" source="IxoI0bGfIbi6MGj2JMH9-37" target="IxoI0bGfIbi6MGj2JMH9-42" edge="1">
          <mxGeometry relative="1" as="geometry" />
        </mxCell>
        <mxCell id="IxoI0bGfIbi6MGj2JMH9-109" value="&lt;b&gt;True&lt;/b&gt;" style="edgeLabel;html=1;align=center;verticalAlign=middle;resizable=0;points=[];" parent="IxoI0bGfIbi6MGj2JMH9-43" vertex="1" connectable="0">
          <mxGeometry x="-0.2194" y="2" relative="1" as="geometry">
            <mxPoint x="1" y="2" as="offset" />
          </mxGeometry>
        </mxCell>
        <mxCell id="IxoI0bGfIbi6MGj2JMH9-130" style="edgeStyle=orthogonalEdgeStyle;rounded=0;orthogonalLoop=1;jettySize=auto;html=1;exitX=0.5;exitY=1;exitDx=0;exitDy=0;" parent="WIyWlLk6GJQsqaUBKTNV-1" source="IxoI0bGfIbi6MGj2JMH9-37" target="IxoI0bGfIbi6MGj2JMH9-47" edge="1">
          <mxGeometry relative="1" as="geometry" />
        </mxCell>
        <mxCell id="IxoI0bGfIbi6MGj2JMH9-131" value="&lt;b&gt;False&lt;/b&gt;" style="edgeLabel;html=1;align=center;verticalAlign=middle;resizable=0;points=[];" parent="IxoI0bGfIbi6MGj2JMH9-130" vertex="1" connectable="0">
          <mxGeometry x="-0.0879" relative="1" as="geometry">
            <mxPoint as="offset" />
          </mxGeometry>
        </mxCell>
        <mxCell id="IxoI0bGfIbi6MGj2JMH9-37" value="&lt;font style=&quot;font-size: 8px;&quot;&gt;[1]&lt;font style=&quot;&quot;&gt;&amp;nbsp;SIGN IN&lt;/font&gt;&lt;/font&gt;" style="rhombus;whiteSpace=wrap;html=1;" parent="WIyWlLk6GJQsqaUBKTNV-1" vertex="1">
          <mxGeometry x="246" y="180" width="80" height="80" as="geometry" />
        </mxCell>
        <mxCell id="IxoI0bGfIbi6MGj2JMH9-41" style="edgeStyle=orthogonalEdgeStyle;rounded=0;orthogonalLoop=1;jettySize=auto;html=1;exitX=0.5;exitY=1;exitDx=0;exitDy=0;entryX=0.5;entryY=0;entryDx=0;entryDy=0;" parent="WIyWlLk6GJQsqaUBKTNV-1" source="IxoI0bGfIbi6MGj2JMH9-38" target="IxoI0bGfIbi6MGj2JMH9-37" edge="1">
          <mxGeometry relative="1" as="geometry" />
        </mxCell>
        <mxCell id="IxoI0bGfIbi6MGj2JMH9-38" value="&lt;font style=&quot;font-size: 8px;&quot;&gt;[1] SIGN IN&lt;/font&gt;&lt;div&gt;&lt;font style=&quot;font-size: 8px;&quot;&gt;[2] SIGN UP&lt;/font&gt;&lt;/div&gt;&lt;div&gt;&lt;font style=&quot;font-size: 8px;&quot;&gt;[3] KELUAR PROGRAM&lt;/font&gt;&lt;/div&gt;" style="shape=parallelogram;perimeter=parallelogramPerimeter;whiteSpace=wrap;html=1;fixedSize=1;" parent="WIyWlLk6GJQsqaUBKTNV-1" vertex="1">
          <mxGeometry x="216" y="100" width="140" height="50" as="geometry" />
        </mxCell>
        <mxCell id="IxoI0bGfIbi6MGj2JMH9-115" style="edgeStyle=orthogonalEdgeStyle;rounded=0;orthogonalLoop=1;jettySize=auto;html=1;exitX=0.5;exitY=1;exitDx=0;exitDy=0;entryX=0.5;entryY=0;entryDx=0;entryDy=0;fontStyle=1" parent="WIyWlLk6GJQsqaUBKTNV-1" source="IxoI0bGfIbi6MGj2JMH9-42" target="IxoI0bGfIbi6MGj2JMH9-44" edge="1">
          <mxGeometry relative="1" as="geometry" />
        </mxCell>
        <mxCell id="IxoI0bGfIbi6MGj2JMH9-116" value="True" style="edgeLabel;html=1;align=center;verticalAlign=middle;resizable=0;points=[];fontStyle=1" parent="IxoI0bGfIbi6MGj2JMH9-115" vertex="1" connectable="0">
          <mxGeometry x="-0.0928" y="-3" relative="1" as="geometry">
            <mxPoint x="3" as="offset" />
          </mxGeometry>
        </mxCell>
        <mxCell id="IxoI0bGfIbi6MGj2JMH9-171" style="edgeStyle=orthogonalEdgeStyle;rounded=0;orthogonalLoop=1;jettySize=auto;html=1;exitX=0;exitY=0.5;exitDx=0;exitDy=0;" parent="WIyWlLk6GJQsqaUBKTNV-1" source="IxoI0bGfIbi6MGj2JMH9-42" edge="1">
          <mxGeometry relative="1" as="geometry">
            <mxPoint x="451.1190476190475" y="219.66666666666663" as="targetPoint" />
          </mxGeometry>
        </mxCell>
        <mxCell id="IxoI0bGfIbi6MGj2JMH9-177" style="edgeStyle=orthogonalEdgeStyle;rounded=0;orthogonalLoop=1;jettySize=auto;html=1;exitDx=0;exitDy=0;entryX=0;entryY=0.5;entryDx=0;entryDy=0;" parent="WIyWlLk6GJQsqaUBKTNV-1" source="IxoI0bGfIbi6MGj2JMH9-217" target="IxoI0bGfIbi6MGj2JMH9-176" edge="1">
          <mxGeometry relative="1" as="geometry" />
        </mxCell>
        <mxCell id="IxoI0bGfIbi6MGj2JMH9-42" value="&lt;font style=&quot;font-size: 8px;&quot;&gt;user = admin&lt;/font&gt;" style="rhombus;whiteSpace=wrap;html=1;" parent="WIyWlLk6GJQsqaUBKTNV-1" vertex="1">
          <mxGeometry x="451" y="180" width="80" height="80" as="geometry" />
        </mxCell>
        <mxCell id="IxoI0bGfIbi6MGj2JMH9-50" style="edgeStyle=orthogonalEdgeStyle;rounded=0;orthogonalLoop=1;jettySize=auto;html=1;exitX=0.5;exitY=1;exitDx=0;exitDy=0;entryX=0.5;entryY=0;entryDx=0;entryDy=0;" parent="WIyWlLk6GJQsqaUBKTNV-1" source="IxoI0bGfIbi6MGj2JMH9-44" target="IxoI0bGfIbi6MGj2JMH9-48" edge="1">
          <mxGeometry relative="1" as="geometry" />
        </mxCell>
        <mxCell id="IxoI0bGfIbi6MGj2JMH9-44" value="&lt;span style=&quot;font-size: 8px;&quot;&gt;MENU ADMIN&lt;/span&gt;" style="shape=parallelogram;perimeter=parallelogramPerimeter;whiteSpace=wrap;html=1;fixedSize=1;" parent="WIyWlLk6GJQsqaUBKTNV-1" vertex="1">
          <mxGeometry x="426" y="340" width="130" height="75" as="geometry" />
        </mxCell>
        <mxCell id="IxoI0bGfIbi6MGj2JMH9-136" style="edgeStyle=orthogonalEdgeStyle;rounded=0;orthogonalLoop=1;jettySize=auto;html=1;exitX=0;exitY=0.5;exitDx=0;exitDy=0;entryX=1;entryY=0.5;entryDx=0;entryDy=0;fontStyle=1" parent="WIyWlLk6GJQsqaUBKTNV-1" source="IxoI0bGfIbi6MGj2JMH9-47" target="IxoI0bGfIbi6MGj2JMH9-139" edge="1">
          <mxGeometry relative="1" as="geometry">
            <mxPoint x="196" y="377.5" as="targetPoint" />
          </mxGeometry>
        </mxCell>
        <mxCell id="IxoI0bGfIbi6MGj2JMH9-137" value="&lt;b&gt;True&lt;/b&gt;" style="edgeLabel;html=1;align=center;verticalAlign=middle;resizable=0;points=[];" parent="IxoI0bGfIbi6MGj2JMH9-136" vertex="1" connectable="0">
          <mxGeometry x="-0.12" y="-2" relative="1" as="geometry">
            <mxPoint x="-3" y="2" as="offset" />
          </mxGeometry>
        </mxCell>
        <mxCell id="IxoI0bGfIbi6MGj2JMH9-143" style="edgeStyle=orthogonalEdgeStyle;rounded=0;orthogonalLoop=1;jettySize=auto;html=1;exitX=0.5;exitY=1;exitDx=0;exitDy=0;entryX=0.5;entryY=0;entryDx=0;entryDy=0;fontStyle=1" parent="WIyWlLk6GJQsqaUBKTNV-1" source="IxoI0bGfIbi6MGj2JMH9-47" target="IxoI0bGfIbi6MGj2JMH9-142" edge="1">
          <mxGeometry relative="1" as="geometry" />
        </mxCell>
        <mxCell id="IxoI0bGfIbi6MGj2JMH9-144" value="&lt;b&gt;False&lt;/b&gt;" style="edgeLabel;html=1;align=center;verticalAlign=middle;resizable=0;points=[];" parent="IxoI0bGfIbi6MGj2JMH9-143" vertex="1" connectable="0">
          <mxGeometry x="-0.4617" relative="1" as="geometry">
            <mxPoint y="8" as="offset" />
          </mxGeometry>
        </mxCell>
        <mxCell id="IxoI0bGfIbi6MGj2JMH9-47" value="&lt;font style=&quot;font-size: 8px;&quot;&gt;[2]&lt;font style=&quot;&quot;&gt;&amp;nbsp;SIGN UP&lt;/font&gt;&lt;/font&gt;" style="rhombus;whiteSpace=wrap;html=1;" parent="WIyWlLk6GJQsqaUBKTNV-1" vertex="1">
          <mxGeometry x="246" y="337.5" width="80" height="80" as="geometry" />
        </mxCell>
        <mxCell id="IxoI0bGfIbi6MGj2JMH9-62" style="edgeStyle=orthogonalEdgeStyle;rounded=0;orthogonalLoop=1;jettySize=auto;html=1;exitX=0.5;exitY=1;exitDx=0;exitDy=0;entryX=0.5;entryY=0;entryDx=0;entryDy=0;" parent="WIyWlLk6GJQsqaUBKTNV-1" source="IxoI0bGfIbi6MGj2JMH9-48" target="IxoI0bGfIbi6MGj2JMH9-61" edge="1">
          <mxGeometry relative="1" as="geometry" />
        </mxCell>
        <mxCell id="IxoI0bGfIbi6MGj2JMH9-102" value="False" style="edgeLabel;html=1;align=center;verticalAlign=middle;resizable=0;points=[];fontStyle=1" parent="IxoI0bGfIbi6MGj2JMH9-62" vertex="1" connectable="0">
          <mxGeometry x="-0.0925" y="-2" relative="1" as="geometry">
            <mxPoint x="2" as="offset" />
          </mxGeometry>
        </mxCell>
        <mxCell id="IxoI0bGfIbi6MGj2JMH9-153" style="edgeStyle=orthogonalEdgeStyle;rounded=0;orthogonalLoop=1;jettySize=auto;html=1;exitX=1;exitY=0.5;exitDx=0;exitDy=0;entryX=0;entryY=0.5;entryDx=0;entryDy=0;" parent="WIyWlLk6GJQsqaUBKTNV-1" source="IxoI0bGfIbi6MGj2JMH9-48" target="IxoI0bGfIbi6MGj2JMH9-64" edge="1">
          <mxGeometry relative="1" as="geometry" />
        </mxCell>
        <mxCell id="IxoI0bGfIbi6MGj2JMH9-157" value="&lt;b&gt;True&lt;/b&gt;" style="edgeLabel;html=1;align=center;verticalAlign=middle;resizable=0;points=[];" parent="IxoI0bGfIbi6MGj2JMH9-153" vertex="1" connectable="0">
          <mxGeometry x="-0.1462" y="1" relative="1" as="geometry">
            <mxPoint as="offset" />
          </mxGeometry>
        </mxCell>
        <mxCell id="IxoI0bGfIbi6MGj2JMH9-48" value="&lt;span style=&quot;font-size: 8px;&quot;&gt;[1] Booking Room&lt;/span&gt;" style="rhombus;whiteSpace=wrap;html=1;" parent="WIyWlLk6GJQsqaUBKTNV-1" vertex="1">
          <mxGeometry x="451" y="455.63" width="80" height="80" as="geometry" />
        </mxCell>
        <mxCell id="IxoI0bGfIbi6MGj2JMH9-77" style="edgeStyle=orthogonalEdgeStyle;rounded=0;orthogonalLoop=1;jettySize=auto;html=1;exitX=0.5;exitY=1;exitDx=0;exitDy=0;entryX=0.5;entryY=0;entryDx=0;entryDy=0;" parent="WIyWlLk6GJQsqaUBKTNV-1" source="IxoI0bGfIbi6MGj2JMH9-61" target="IxoI0bGfIbi6MGj2JMH9-74" edge="1">
          <mxGeometry relative="1" as="geometry" />
        </mxCell>
        <mxCell id="IxoI0bGfIbi6MGj2JMH9-103" value="False" style="edgeLabel;html=1;align=center;verticalAlign=middle;resizable=0;points=[];fontStyle=1" parent="IxoI0bGfIbi6MGj2JMH9-77" vertex="1" connectable="0">
          <mxGeometry x="-0.1767" y="-3" relative="1" as="geometry">
            <mxPoint x="3" as="offset" />
          </mxGeometry>
        </mxCell>
        <mxCell id="IxoI0bGfIbi6MGj2JMH9-154" style="edgeStyle=orthogonalEdgeStyle;rounded=0;orthogonalLoop=1;jettySize=auto;html=1;exitX=1;exitY=0.5;exitDx=0;exitDy=0;entryX=0;entryY=0.5;entryDx=0;entryDy=0;" parent="WIyWlLk6GJQsqaUBKTNV-1" source="IxoI0bGfIbi6MGj2JMH9-61" target="IxoI0bGfIbi6MGj2JMH9-70" edge="1">
          <mxGeometry relative="1" as="geometry" />
        </mxCell>
        <mxCell id="IxoI0bGfIbi6MGj2JMH9-156" value="&lt;b&gt;True&lt;/b&gt;" style="edgeLabel;html=1;align=center;verticalAlign=middle;resizable=0;points=[];" parent="IxoI0bGfIbi6MGj2JMH9-154" vertex="1" connectable="0">
          <mxGeometry x="-0.2912" y="-1" relative="1" as="geometry">
            <mxPoint x="4" y="-1" as="offset" />
          </mxGeometry>
        </mxCell>
        <mxCell id="IxoI0bGfIbi6MGj2JMH9-61" value="&lt;span style=&quot;font-size: 8px;&quot;&gt;[2] Hapus Room&lt;/span&gt;" style="rhombus;whiteSpace=wrap;html=1;" parent="WIyWlLk6GJQsqaUBKTNV-1" vertex="1">
          <mxGeometry x="451" y="577.5" width="80" height="80" as="geometry" />
        </mxCell>
        <mxCell id="IxoI0bGfIbi6MGj2JMH9-207" style="edgeStyle=orthogonalEdgeStyle;rounded=0;orthogonalLoop=1;jettySize=auto;html=1;exitX=1;exitY=0.5;exitDx=0;exitDy=0;" parent="WIyWlLk6GJQsqaUBKTNV-1" source="IxoI0bGfIbi6MGj2JMH9-64" target="IxoI0bGfIbi6MGj2JMH9-161" edge="1">
          <mxGeometry relative="1" as="geometry" />
        </mxCell>
        <mxCell id="IxoI0bGfIbi6MGj2JMH9-64" value="&lt;span style=&quot;font-size: 8px;&quot;&gt;Tambah Nama&lt;/span&gt;&lt;div&gt;&lt;span style=&quot;font-size: 8px;&quot;&gt;Tambah Room&lt;/span&gt;&lt;/div&gt;" style="rounded=0;whiteSpace=wrap;html=1;" parent="WIyWlLk6GJQsqaUBKTNV-1" vertex="1">
          <mxGeometry x="589.5" y="473.76" width="100" height="43.75" as="geometry" />
        </mxCell>
        <mxCell id="IxoI0bGfIbi6MGj2JMH9-70" value="&lt;span style=&quot;font-size: 8px;&quot;&gt;Hapus Room&lt;/span&gt;" style="rounded=0;whiteSpace=wrap;html=1;" parent="WIyWlLk6GJQsqaUBKTNV-1" vertex="1">
          <mxGeometry x="589.5" y="595.62" width="100" height="43.75" as="geometry" />
        </mxCell>
        <mxCell id="IxoI0bGfIbi6MGj2JMH9-83" style="edgeStyle=orthogonalEdgeStyle;rounded=0;orthogonalLoop=1;jettySize=auto;html=1;exitX=1;exitY=0.5;exitDx=0;exitDy=0;" parent="WIyWlLk6GJQsqaUBKTNV-1" source="IxoI0bGfIbi6MGj2JMH9-74" target="IxoI0bGfIbi6MGj2JMH9-78" edge="1">
          <mxGeometry relative="1" as="geometry" />
        </mxCell>
        <mxCell id="IxoI0bGfIbi6MGj2JMH9-155" value="&lt;b&gt;True&lt;/b&gt;" style="edgeLabel;html=1;align=center;verticalAlign=middle;resizable=0;points=[];" parent="IxoI0bGfIbi6MGj2JMH9-83" vertex="1" connectable="0">
          <mxGeometry x="-0.1669" y="2" relative="1" as="geometry">
            <mxPoint x="1" y="2" as="offset" />
          </mxGeometry>
        </mxCell>
        <mxCell id="IxoI0bGfIbi6MGj2JMH9-85" style="edgeStyle=orthogonalEdgeStyle;rounded=0;orthogonalLoop=1;jettySize=auto;html=1;exitX=0.5;exitY=1;exitDx=0;exitDy=0;entryX=0.5;entryY=0;entryDx=0;entryDy=0;" parent="WIyWlLk6GJQsqaUBKTNV-1" source="IxoI0bGfIbi6MGj2JMH9-74" target="IxoI0bGfIbi6MGj2JMH9-84" edge="1">
          <mxGeometry relative="1" as="geometry" />
        </mxCell>
        <mxCell id="IxoI0bGfIbi6MGj2JMH9-104" value="&lt;b&gt;False&lt;/b&gt;" style="edgeLabel;html=1;align=center;verticalAlign=middle;resizable=0;points=[];" parent="IxoI0bGfIbi6MGj2JMH9-85" vertex="1" connectable="0">
          <mxGeometry x="-0.2767" y="2" relative="1" as="geometry">
            <mxPoint x="-2" as="offset" />
          </mxGeometry>
        </mxCell>
        <mxCell id="IxoI0bGfIbi6MGj2JMH9-74" value="&lt;span style=&quot;font-size: 8px;&quot;&gt;[3] List Room&lt;/span&gt;" style="rhombus;whiteSpace=wrap;html=1;" parent="WIyWlLk6GJQsqaUBKTNV-1" vertex="1">
          <mxGeometry x="451" y="697.5" width="80" height="80" as="geometry" />
        </mxCell>
        <mxCell id="IxoI0bGfIbi6MGj2JMH9-78" value="&lt;span style=&quot;font-size: 8px;&quot;&gt;Tampilkan List Room&lt;/span&gt;" style="rounded=0;whiteSpace=wrap;html=1;" parent="WIyWlLk6GJQsqaUBKTNV-1" vertex="1">
          <mxGeometry x="589.5" y="715.63" width="100" height="43.75" as="geometry" />
        </mxCell>
        <mxCell id="IxoI0bGfIbi6MGj2JMH9-88" style="edgeStyle=orthogonalEdgeStyle;rounded=0;orthogonalLoop=1;jettySize=auto;html=1;exitX=0.5;exitY=1;exitDx=0;exitDy=0;entryX=0.5;entryY=0;entryDx=0;entryDy=0;" parent="WIyWlLk6GJQsqaUBKTNV-1" source="IxoI0bGfIbi6MGj2JMH9-84" target="IxoI0bGfIbi6MGj2JMH9-87" edge="1">
          <mxGeometry relative="1" as="geometry" />
        </mxCell>
        <mxCell id="IxoI0bGfIbi6MGj2JMH9-105" value="&lt;b&gt;False&lt;/b&gt;" style="edgeLabel;html=1;align=center;verticalAlign=middle;resizable=0;points=[];" parent="IxoI0bGfIbi6MGj2JMH9-88" vertex="1" connectable="0">
          <mxGeometry x="-0.2367" y="-1" relative="1" as="geometry">
            <mxPoint as="offset" />
          </mxGeometry>
        </mxCell>
        <mxCell id="IxoI0bGfIbi6MGj2JMH9-234" style="edgeStyle=orthogonalEdgeStyle;rounded=0;orthogonalLoop=1;jettySize=auto;html=1;exitX=1;exitY=0.5;exitDx=0;exitDy=0;entryX=0.747;entryY=0.09;entryDx=0;entryDy=0;entryPerimeter=0;fillColor=#f8cecc;strokeColor=#b85450;" parent="WIyWlLk6GJQsqaUBKTNV-1" source="IxoI0bGfIbi6MGj2JMH9-84" target="IxoI0bGfIbi6MGj2JMH9-231" edge="1">
          <mxGeometry relative="1" as="geometry">
            <mxPoint x="806" y="500" as="targetPoint" />
          </mxGeometry>
        </mxCell>
        <mxCell id="IxoI0bGfIbi6MGj2JMH9-84" value="&lt;span style=&quot;font-size: 8px;&quot;&gt;[4] Ganti Akun&lt;/span&gt;" style="rhombus;whiteSpace=wrap;html=1;" parent="WIyWlLk6GJQsqaUBKTNV-1" vertex="1">
          <mxGeometry x="451" y="817.5" width="80" height="80" as="geometry" />
        </mxCell>
        <mxCell id="IxoI0bGfIbi6MGj2JMH9-92" style="edgeStyle=orthogonalEdgeStyle;rounded=0;orthogonalLoop=1;jettySize=auto;html=1;exitX=0.5;exitY=1;exitDx=0;exitDy=0;entryX=0.5;entryY=0;entryDx=0;entryDy=0;fontStyle=1" parent="WIyWlLk6GJQsqaUBKTNV-1" source="IxoI0bGfIbi6MGj2JMH9-87" target="IxoI0bGfIbi6MGj2JMH9-91" edge="1">
          <mxGeometry relative="1" as="geometry" />
        </mxCell>
        <mxCell id="IxoI0bGfIbi6MGj2JMH9-94" value="&lt;b&gt;True&lt;/b&gt;" style="edgeLabel;html=1;align=center;verticalAlign=middle;resizable=0;points=[];" parent="IxoI0bGfIbi6MGj2JMH9-92" vertex="1" connectable="0">
          <mxGeometry x="-0.1667" y="1" relative="1" as="geometry">
            <mxPoint x="-1" as="offset" />
          </mxGeometry>
        </mxCell>
        <mxCell id="IxoI0bGfIbi6MGj2JMH9-168" style="edgeStyle=orthogonalEdgeStyle;rounded=0;orthogonalLoop=1;jettySize=auto;html=1;exitX=0;exitY=0.5;exitDx=0;exitDy=0;entryX=0;entryY=0.5;entryDx=0;entryDy=0;" parent="WIyWlLk6GJQsqaUBKTNV-1" source="IxoI0bGfIbi6MGj2JMH9-87" target="IxoI0bGfIbi6MGj2JMH9-44" edge="1">
          <mxGeometry relative="1" as="geometry">
            <Array as="points">
              <mxPoint x="376" y="978" />
              <mxPoint x="376" y="378" />
            </Array>
          </mxGeometry>
        </mxCell>
        <mxCell id="IxoI0bGfIbi6MGj2JMH9-87" value="&lt;span style=&quot;font-size: 8px;&quot;&gt;[5] EXIT&lt;/span&gt;" style="rhombus;whiteSpace=wrap;html=1;" parent="WIyWlLk6GJQsqaUBKTNV-1" vertex="1">
          <mxGeometry x="451" y="937.5" width="80" height="80" as="geometry" />
        </mxCell>
        <mxCell id="IxoI0bGfIbi6MGj2JMH9-222" style="edgeStyle=orthogonalEdgeStyle;rounded=0;orthogonalLoop=1;jettySize=auto;html=1;exitDx=0;exitDy=0;" parent="WIyWlLk6GJQsqaUBKTNV-1" source="IxoI0bGfIbi6MGj2JMH9-226" target="IxoI0bGfIbi6MGj2JMH9-223" edge="1">
          <mxGeometry relative="1" as="geometry">
            <mxPoint x="296" y="1170" as="targetPoint" />
            <Array as="points" />
          </mxGeometry>
        </mxCell>
        <mxCell id="IxoI0bGfIbi6MGj2JMH9-91" value="&lt;span style=&quot;font-size: 8px;&quot;&gt;Akhiri Program&lt;/span&gt;" style="rounded=0;whiteSpace=wrap;html=1;" parent="WIyWlLk6GJQsqaUBKTNV-1" vertex="1">
          <mxGeometry x="441" y="1057.5" width="100" height="43.75" as="geometry" />
        </mxCell>
        <mxCell id="IxoI0bGfIbi6MGj2JMH9-169" style="edgeStyle=orthogonalEdgeStyle;rounded=0;orthogonalLoop=1;jettySize=auto;html=1;exitDx=0;exitDy=0;entryX=0;entryY=0.5;entryDx=0;entryDy=0;" parent="WIyWlLk6GJQsqaUBKTNV-1" source="IxoI0bGfIbi6MGj2JMH9-209" target="IxoI0bGfIbi6MGj2JMH9-38" edge="1">
          <mxGeometry relative="1" as="geometry">
            <Array as="points">
              <mxPoint x="36" y="125" />
            </Array>
          </mxGeometry>
        </mxCell>
        <mxCell id="IxoI0bGfIbi6MGj2JMH9-139" value="&lt;span style=&quot;font-size: 8px;&quot;&gt;Tambahkan ID Baru&lt;/span&gt;&lt;div&gt;&lt;span style=&quot;font-size: 8px;&quot;&gt;Tambahkan Password Baru&lt;/span&gt;&lt;/div&gt;" style="rounded=0;whiteSpace=wrap;html=1;" parent="WIyWlLk6GJQsqaUBKTNV-1" vertex="1">
          <mxGeometry x="76" y="355.62" width="110" height="43.75" as="geometry" />
        </mxCell>
        <mxCell id="IxoI0bGfIbi6MGj2JMH9-145" style="edgeStyle=orthogonalEdgeStyle;rounded=0;orthogonalLoop=1;jettySize=auto;html=1;exitDx=0;exitDy=0;entryX=0.5;entryY=0;entryDx=0;entryDy=0;" parent="WIyWlLk6GJQsqaUBKTNV-1" source="IxoI0bGfIbi6MGj2JMH9-223" target="WIyWlLk6GJQsqaUBKTNV-11" edge="1">
          <mxGeometry relative="1" as="geometry" />
        </mxCell>
        <mxCell id="IxoI0bGfIbi6MGj2JMH9-151" style="edgeStyle=orthogonalEdgeStyle;rounded=0;orthogonalLoop=1;jettySize=auto;html=1;exitX=0;exitY=0.5;exitDx=0;exitDy=0;" parent="WIyWlLk6GJQsqaUBKTNV-1" source="IxoI0bGfIbi6MGj2JMH9-142" edge="1">
          <mxGeometry relative="1" as="geometry">
            <mxPoint x="36" y="380" as="targetPoint" />
          </mxGeometry>
        </mxCell>
        <mxCell id="IxoI0bGfIbi6MGj2JMH9-170" value="&lt;b&gt;False&lt;/b&gt;" style="edgeLabel;html=1;align=center;verticalAlign=middle;resizable=0;points=[];" parent="IxoI0bGfIbi6MGj2JMH9-151" vertex="1" connectable="0">
          <mxGeometry x="-0.7829" y="2" relative="1" as="geometry">
            <mxPoint x="7" y="-2" as="offset" />
          </mxGeometry>
        </mxCell>
        <mxCell id="IxoI0bGfIbi6MGj2JMH9-142" value="&lt;font style=&quot;font-size: 8px;&quot;&gt;[3] KELUAR PROGRAM&lt;/font&gt;" style="rhombus;whiteSpace=wrap;html=1;" parent="WIyWlLk6GJQsqaUBKTNV-1" vertex="1">
          <mxGeometry x="246" y="471.88" width="80" height="80" as="geometry" />
        </mxCell>
        <mxCell id="IxoI0bGfIbi6MGj2JMH9-161" value="" style="shape=waypoint;sketch=0;size=6;pointerEvents=1;points=[];fillColor=none;resizable=0;rotatable=0;perimeter=centerPerimeter;snapToPoint=1;" parent="WIyWlLk6GJQsqaUBKTNV-1" vertex="1">
          <mxGeometry x="729.5" y="485.63" width="20" height="20" as="geometry" />
        </mxCell>
        <mxCell id="IxoI0bGfIbi6MGj2JMH9-165" value="" style="shape=waypoint;sketch=0;size=6;pointerEvents=1;points=[];fillColor=none;resizable=0;rotatable=0;perimeter=centerPerimeter;snapToPoint=1;" parent="WIyWlLk6GJQsqaUBKTNV-1" vertex="1">
          <mxGeometry x="729.5" y="607.5" width="20" height="20" as="geometry" />
        </mxCell>
        <mxCell id="IxoI0bGfIbi6MGj2JMH9-167" style="edgeStyle=orthogonalEdgeStyle;rounded=0;orthogonalLoop=1;jettySize=auto;html=1;exitX=1;exitY=0.5;exitDx=0;exitDy=0;entryX=0.617;entryY=0.897;entryDx=0;entryDy=0;entryPerimeter=0;" parent="WIyWlLk6GJQsqaUBKTNV-1" source="IxoI0bGfIbi6MGj2JMH9-78" target="IxoI0bGfIbi6MGj2JMH9-165" edge="1">
          <mxGeometry relative="1" as="geometry" />
        </mxCell>
        <mxCell id="IxoI0bGfIbi6MGj2JMH9-188" style="edgeStyle=orthogonalEdgeStyle;rounded=0;orthogonalLoop=1;jettySize=auto;html=1;exitX=0.5;exitY=1;exitDx=0;exitDy=0;entryX=0.486;entryY=-0.038;entryDx=0;entryDy=0;entryPerimeter=0;" parent="WIyWlLk6GJQsqaUBKTNV-1" source="IxoI0bGfIbi6MGj2JMH9-176" target="IxoI0bGfIbi6MGj2JMH9-182" edge="1">
          <mxGeometry relative="1" as="geometry">
            <mxPoint x="970.7826086956522" y="290" as="targetPoint" />
          </mxGeometry>
        </mxCell>
        <mxCell id="IxoI0bGfIbi6MGj2JMH9-176" value="&lt;span style=&quot;font-size: 8px;&quot;&gt;MENU USER&lt;/span&gt;" style="shape=parallelogram;perimeter=parallelogramPerimeter;whiteSpace=wrap;html=1;fixedSize=1;" parent="WIyWlLk6GJQsqaUBKTNV-1" vertex="1">
          <mxGeometry x="906" y="182.5" width="130" height="75" as="geometry" />
        </mxCell>
        <mxCell id="IxoI0bGfIbi6MGj2JMH9-178" style="edgeStyle=orthogonalEdgeStyle;rounded=0;orthogonalLoop=1;jettySize=auto;html=1;exitX=1;exitY=0.5;exitDx=0;exitDy=0;" parent="WIyWlLk6GJQsqaUBKTNV-1" source="IxoI0bGfIbi6MGj2JMH9-182" target="IxoI0bGfIbi6MGj2JMH9-183" edge="1">
          <mxGeometry relative="1" as="geometry" />
        </mxCell>
        <mxCell id="IxoI0bGfIbi6MGj2JMH9-179" value="&lt;b&gt;True&lt;/b&gt;" style="edgeLabel;html=1;align=center;verticalAlign=middle;resizable=0;points=[];" parent="IxoI0bGfIbi6MGj2JMH9-178" vertex="1" connectable="0">
          <mxGeometry x="-0.1669" y="2" relative="1" as="geometry">
            <mxPoint x="1" y="2" as="offset" />
          </mxGeometry>
        </mxCell>
        <mxCell id="IxoI0bGfIbi6MGj2JMH9-180" style="edgeStyle=orthogonalEdgeStyle;rounded=0;orthogonalLoop=1;jettySize=auto;html=1;exitX=0.5;exitY=1;exitDx=0;exitDy=0;entryX=0.5;entryY=0;entryDx=0;entryDy=0;" parent="WIyWlLk6GJQsqaUBKTNV-1" source="IxoI0bGfIbi6MGj2JMH9-182" target="IxoI0bGfIbi6MGj2JMH9-186" edge="1">
          <mxGeometry relative="1" as="geometry" />
        </mxCell>
        <mxCell id="IxoI0bGfIbi6MGj2JMH9-181" value="&lt;b&gt;False&lt;/b&gt;" style="edgeLabel;html=1;align=center;verticalAlign=middle;resizable=0;points=[];" parent="IxoI0bGfIbi6MGj2JMH9-180" vertex="1" connectable="0">
          <mxGeometry x="-0.2767" y="2" relative="1" as="geometry">
            <mxPoint x="-2" as="offset" />
          </mxGeometry>
        </mxCell>
        <mxCell id="IxoI0bGfIbi6MGj2JMH9-182" value="&lt;span style=&quot;font-size: 8px;&quot;&gt;[3] List Room&lt;/span&gt;" style="rhombus;whiteSpace=wrap;html=1;" parent="WIyWlLk6GJQsqaUBKTNV-1" vertex="1">
          <mxGeometry x="926" y="300" width="80" height="80" as="geometry" />
        </mxCell>
        <mxCell id="IxoI0bGfIbi6MGj2JMH9-183" value="&lt;span style=&quot;font-size: 8px;&quot;&gt;Tampilkan List Room&lt;/span&gt;" style="rounded=0;whiteSpace=wrap;html=1;" parent="WIyWlLk6GJQsqaUBKTNV-1" vertex="1">
          <mxGeometry x="1064.5" y="318.13" width="100" height="43.75" as="geometry" />
        </mxCell>
        <mxCell id="IxoI0bGfIbi6MGj2JMH9-184" style="edgeStyle=orthogonalEdgeStyle;rounded=0;orthogonalLoop=1;jettySize=auto;html=1;exitX=0.5;exitY=1;exitDx=0;exitDy=0;entryX=0.5;entryY=0;entryDx=0;entryDy=0;" parent="WIyWlLk6GJQsqaUBKTNV-1" source="IxoI0bGfIbi6MGj2JMH9-186" target="IxoI0bGfIbi6MGj2JMH9-187" edge="1">
          <mxGeometry relative="1" as="geometry" />
        </mxCell>
        <mxCell id="IxoI0bGfIbi6MGj2JMH9-185" value="&lt;b&gt;False&lt;/b&gt;" style="edgeLabel;html=1;align=center;verticalAlign=middle;resizable=0;points=[];" parent="IxoI0bGfIbi6MGj2JMH9-184" vertex="1" connectable="0">
          <mxGeometry x="-0.2367" y="-1" relative="1" as="geometry">
            <mxPoint as="offset" />
          </mxGeometry>
        </mxCell>
        <mxCell id="IxoI0bGfIbi6MGj2JMH9-230" style="edgeStyle=orthogonalEdgeStyle;rounded=0;orthogonalLoop=1;jettySize=auto;html=1;exitDx=0;exitDy=0;entryX=1;entryY=0.5;entryDx=0;entryDy=0;fillColor=#f8cecc;strokeColor=#b85450;" parent="WIyWlLk6GJQsqaUBKTNV-1" source="IxoI0bGfIbi6MGj2JMH9-231" target="IxoI0bGfIbi6MGj2JMH9-38" edge="1">
          <mxGeometry relative="1" as="geometry">
            <Array as="points">
              <mxPoint x="806" y="125" />
            </Array>
          </mxGeometry>
        </mxCell>
        <mxCell id="IxoI0bGfIbi6MGj2JMH9-186" value="&lt;span style=&quot;font-size: 8px;&quot;&gt;[4] Ganti Akun&lt;/span&gt;" style="rhombus;whiteSpace=wrap;html=1;" parent="WIyWlLk6GJQsqaUBKTNV-1" vertex="1">
          <mxGeometry x="926" y="420" width="80" height="80" as="geometry" />
        </mxCell>
        <mxCell id="IxoI0bGfIbi6MGj2JMH9-212" style="edgeStyle=orthogonalEdgeStyle;rounded=0;orthogonalLoop=1;jettySize=auto;html=1;exitX=0.5;exitY=1;exitDx=0;exitDy=0;entryX=0.5;entryY=0;entryDx=0;entryDy=0;" parent="WIyWlLk6GJQsqaUBKTNV-1" source="IxoI0bGfIbi6MGj2JMH9-187" target="IxoI0bGfIbi6MGj2JMH9-211" edge="1">
          <mxGeometry relative="1" as="geometry" />
        </mxCell>
        <mxCell id="IxoI0bGfIbi6MGj2JMH9-215" value="&lt;b&gt;True&lt;/b&gt;" style="edgeLabel;html=1;align=center;verticalAlign=middle;resizable=0;points=[];" parent="IxoI0bGfIbi6MGj2JMH9-212" vertex="1" connectable="0">
          <mxGeometry x="-0.3693" y="-2" relative="1" as="geometry">
            <mxPoint x="2" y="1" as="offset" />
          </mxGeometry>
        </mxCell>
        <mxCell id="IxoI0bGfIbi6MGj2JMH9-216" style="edgeStyle=orthogonalEdgeStyle;rounded=0;orthogonalLoop=1;jettySize=auto;html=1;exitX=0;exitY=0.5;exitDx=0;exitDy=0;entryX=0.5;entryY=0.743;entryDx=0;entryDy=0;entryPerimeter=0;" parent="WIyWlLk6GJQsqaUBKTNV-1" source="IxoI0bGfIbi6MGj2JMH9-187" target="IxoI0bGfIbi6MGj2JMH9-217" edge="1">
          <mxGeometry relative="1" as="geometry">
            <mxPoint x="876" y="230" as="targetPoint" />
          </mxGeometry>
        </mxCell>
        <mxCell id="IxoI0bGfIbi6MGj2JMH9-187" value="&lt;span style=&quot;font-size: 8px;&quot;&gt;[5] EXIT&lt;/span&gt;" style="rhombus;whiteSpace=wrap;html=1;" parent="WIyWlLk6GJQsqaUBKTNV-1" vertex="1">
          <mxGeometry x="926" y="540" width="80" height="80" as="geometry" />
        </mxCell>
        <mxCell id="IxoI0bGfIbi6MGj2JMH9-192" style="edgeStyle=orthogonalEdgeStyle;rounded=0;orthogonalLoop=1;jettySize=auto;html=1;exitX=1;exitY=0.5;exitDx=0;exitDy=0;" parent="WIyWlLk6GJQsqaUBKTNV-1" source="IxoI0bGfIbi6MGj2JMH9-187" target="IxoI0bGfIbi6MGj2JMH9-194" edge="1">
          <mxGeometry relative="1" as="geometry">
            <mxPoint x="1016" y="583" as="sourcePoint" />
          </mxGeometry>
        </mxCell>
        <mxCell id="IxoI0bGfIbi6MGj2JMH9-193" value="&lt;b&gt;True&lt;/b&gt;" style="edgeLabel;html=1;align=center;verticalAlign=middle;resizable=0;points=[];" parent="IxoI0bGfIbi6MGj2JMH9-192" vertex="1" connectable="0">
          <mxGeometry x="-0.1669" y="2" relative="1" as="geometry">
            <mxPoint x="1" y="2" as="offset" />
          </mxGeometry>
        </mxCell>
        <mxCell id="IxoI0bGfIbi6MGj2JMH9-194" value="&lt;span style=&quot;font-size: 8px;&quot;&gt;Tampilkan List Room&lt;/span&gt;" style="rounded=0;whiteSpace=wrap;html=1;" parent="WIyWlLk6GJQsqaUBKTNV-1" vertex="1">
          <mxGeometry x="1064.5" y="558.13" width="100" height="43.75" as="geometry" />
        </mxCell>
        <mxCell id="IxoI0bGfIbi6MGj2JMH9-196" style="edgeStyle=orthogonalEdgeStyle;rounded=0;orthogonalLoop=1;jettySize=auto;html=1;exitX=1;exitY=0.5;exitDx=0;exitDy=0;entryX=0.481;entryY=0.872;entryDx=0;entryDy=0;entryPerimeter=0;" parent="WIyWlLk6GJQsqaUBKTNV-1" source="IxoI0bGfIbi6MGj2JMH9-194" target="IxoI0bGfIbi6MGj2JMH9-199" edge="1">
          <mxGeometry relative="1" as="geometry">
            <mxPoint x="1214.5" y="461.76" as="targetPoint" />
          </mxGeometry>
        </mxCell>
        <mxCell id="IxoI0bGfIbi6MGj2JMH9-199" value="" style="shape=waypoint;sketch=0;size=6;pointerEvents=1;points=[];fillColor=none;resizable=0;rotatable=0;perimeter=centerPerimeter;snapToPoint=1;" parent="WIyWlLk6GJQsqaUBKTNV-1" vertex="1">
          <mxGeometry x="1204.5" y="330.01" width="20" height="20" as="geometry" />
        </mxCell>
        <mxCell id="IxoI0bGfIbi6MGj2JMH9-203" style="edgeStyle=orthogonalEdgeStyle;rounded=0;orthogonalLoop=1;jettySize=auto;html=1;exitX=1;exitY=0.5;exitDx=0;exitDy=0;entryX=0.146;entryY=0.59;entryDx=0;entryDy=0;entryPerimeter=0;" parent="WIyWlLk6GJQsqaUBKTNV-1" source="IxoI0bGfIbi6MGj2JMH9-183" target="IxoI0bGfIbi6MGj2JMH9-199" edge="1">
          <mxGeometry relative="1" as="geometry" />
        </mxCell>
        <mxCell id="IxoI0bGfIbi6MGj2JMH9-204" value="" style="endArrow=classic;html=1;rounded=0;entryX=1;entryY=0.5;entryDx=0;entryDy=0;exitX=0.451;exitY=0.209;exitDx=0;exitDy=0;exitPerimeter=0;" parent="WIyWlLk6GJQsqaUBKTNV-1" source="IxoI0bGfIbi6MGj2JMH9-199" target="IxoI0bGfIbi6MGj2JMH9-176" edge="1">
          <mxGeometry width="50" height="50" relative="1" as="geometry">
            <mxPoint x="1136" y="320" as="sourcePoint" />
            <mxPoint x="1186" y="270" as="targetPoint" />
            <Array as="points">
              <mxPoint x="1215" y="220" />
            </Array>
          </mxGeometry>
        </mxCell>
        <mxCell id="IxoI0bGfIbi6MGj2JMH9-205" style="edgeStyle=orthogonalEdgeStyle;rounded=0;orthogonalLoop=1;jettySize=auto;html=1;exitX=1;exitY=0.5;exitDx=0;exitDy=0;entryX=0.272;entryY=0.558;entryDx=0;entryDy=0;entryPerimeter=0;" parent="WIyWlLk6GJQsqaUBKTNV-1" source="IxoI0bGfIbi6MGj2JMH9-70" target="IxoI0bGfIbi6MGj2JMH9-165" edge="1">
          <mxGeometry relative="1" as="geometry" />
        </mxCell>
        <mxCell id="IxoI0bGfIbi6MGj2JMH9-206" value="" style="endArrow=classic;html=1;rounded=0;exitX=0.458;exitY=0.118;exitDx=0;exitDy=0;exitPerimeter=0;" parent="WIyWlLk6GJQsqaUBKTNV-1" source="IxoI0bGfIbi6MGj2JMH9-165" target="IxoI0bGfIbi6MGj2JMH9-161" edge="1">
          <mxGeometry width="50" height="50" relative="1" as="geometry">
            <mxPoint x="706" y="580" as="sourcePoint" />
            <mxPoint x="756" y="530" as="targetPoint" />
          </mxGeometry>
        </mxCell>
        <mxCell id="IxoI0bGfIbi6MGj2JMH9-208" value="" style="endArrow=classic;html=1;rounded=0;exitX=0.597;exitY=0.193;exitDx=0;exitDy=0;exitPerimeter=0;entryX=1;entryY=0.5;entryDx=0;entryDy=0;" parent="WIyWlLk6GJQsqaUBKTNV-1" source="IxoI0bGfIbi6MGj2JMH9-161" target="IxoI0bGfIbi6MGj2JMH9-44" edge="1">
          <mxGeometry width="50" height="50" relative="1" as="geometry">
            <mxPoint x="739.16" y="473.76" as="sourcePoint" />
            <mxPoint x="739.16" y="351.76" as="targetPoint" />
            <Array as="points">
              <mxPoint x="740" y="380" />
            </Array>
          </mxGeometry>
        </mxCell>
        <mxCell id="IxoI0bGfIbi6MGj2JMH9-210" value="" style="edgeStyle=orthogonalEdgeStyle;rounded=0;orthogonalLoop=1;jettySize=auto;html=1;exitX=0;exitY=0.5;exitDx=0;exitDy=0;entryDx=0;entryDy=0;" parent="WIyWlLk6GJQsqaUBKTNV-1" source="IxoI0bGfIbi6MGj2JMH9-139" target="IxoI0bGfIbi6MGj2JMH9-209" edge="1">
          <mxGeometry relative="1" as="geometry">
            <mxPoint x="76" y="377" as="sourcePoint" />
            <mxPoint x="226" y="125" as="targetPoint" />
            <Array as="points">
              <mxPoint x="36" y="377" />
            </Array>
          </mxGeometry>
        </mxCell>
        <mxCell id="IxoI0bGfIbi6MGj2JMH9-209" value="" style="shape=waypoint;sketch=0;size=6;pointerEvents=1;points=[];fillColor=none;resizable=0;rotatable=0;perimeter=centerPerimeter;snapToPoint=1;" parent="WIyWlLk6GJQsqaUBKTNV-1" vertex="1">
          <mxGeometry x="26" y="367.49" width="20" height="20" as="geometry" />
        </mxCell>
        <mxCell id="IxoI0bGfIbi6MGj2JMH9-211" value="&lt;span style=&quot;font-size: 8px;&quot;&gt;Akhiri Program&lt;/span&gt;" style="rounded=0;whiteSpace=wrap;html=1;" parent="WIyWlLk6GJQsqaUBKTNV-1" vertex="1">
          <mxGeometry x="916" y="680" width="100" height="43.75" as="geometry" />
        </mxCell>
        <mxCell id="IxoI0bGfIbi6MGj2JMH9-218" value="" style="edgeStyle=orthogonalEdgeStyle;rounded=0;orthogonalLoop=1;jettySize=auto;html=1;exitX=1;exitY=0.5;exitDx=0;exitDy=0;entryDx=0;entryDy=0;" parent="WIyWlLk6GJQsqaUBKTNV-1" source="IxoI0bGfIbi6MGj2JMH9-42" target="IxoI0bGfIbi6MGj2JMH9-217" edge="1">
          <mxGeometry relative="1" as="geometry">
            <mxPoint x="531" y="220" as="sourcePoint" />
            <mxPoint x="916" y="220" as="targetPoint" />
          </mxGeometry>
        </mxCell>
        <mxCell id="IxoI0bGfIbi6MGj2JMH9-217" value="" style="shape=waypoint;sketch=0;size=6;pointerEvents=1;points=[];fillColor=none;resizable=0;rotatable=0;perimeter=centerPerimeter;snapToPoint=1;" parent="WIyWlLk6GJQsqaUBKTNV-1" vertex="1">
          <mxGeometry x="866" y="210" width="20" height="20" as="geometry" />
        </mxCell>
        <mxCell id="IxoI0bGfIbi6MGj2JMH9-224" value="" style="edgeStyle=orthogonalEdgeStyle;rounded=0;orthogonalLoop=1;jettySize=auto;html=1;exitX=0.5;exitY=1;exitDx=0;exitDy=0;entryDx=0;entryDy=0;" parent="WIyWlLk6GJQsqaUBKTNV-1" source="IxoI0bGfIbi6MGj2JMH9-142" target="IxoI0bGfIbi6MGj2JMH9-223" edge="1">
          <mxGeometry relative="1" as="geometry">
            <mxPoint x="286" y="552" as="sourcePoint" />
            <mxPoint x="286" y="1230" as="targetPoint" />
          </mxGeometry>
        </mxCell>
        <mxCell id="IxoI0bGfIbi6MGj2JMH9-225" value="&lt;b&gt;True&lt;/b&gt;" style="edgeLabel;html=1;align=center;verticalAlign=middle;resizable=0;points=[];" parent="IxoI0bGfIbi6MGj2JMH9-224" vertex="1" connectable="0">
          <mxGeometry x="-0.8443" y="1" relative="1" as="geometry">
            <mxPoint x="-1" y="-27" as="offset" />
          </mxGeometry>
        </mxCell>
        <mxCell id="IxoI0bGfIbi6MGj2JMH9-223" value="" style="shape=waypoint;sketch=0;size=6;pointerEvents=1;points=[];fillColor=none;resizable=0;rotatable=0;perimeter=centerPerimeter;snapToPoint=1;" parent="WIyWlLk6GJQsqaUBKTNV-1" vertex="1">
          <mxGeometry x="276" y="1160" width="20" height="20" as="geometry" />
        </mxCell>
        <mxCell id="IxoI0bGfIbi6MGj2JMH9-227" value="" style="edgeStyle=orthogonalEdgeStyle;rounded=0;orthogonalLoop=1;jettySize=auto;html=1;exitX=0.5;exitY=1;exitDx=0;exitDy=0;" parent="WIyWlLk6GJQsqaUBKTNV-1" source="IxoI0bGfIbi6MGj2JMH9-91" target="IxoI0bGfIbi6MGj2JMH9-226" edge="1">
          <mxGeometry relative="1" as="geometry">
            <mxPoint x="286" y="1170" as="targetPoint" />
            <mxPoint x="491" y="1101" as="sourcePoint" />
            <Array as="points">
              <mxPoint x="491" y="1170" />
            </Array>
          </mxGeometry>
        </mxCell>
        <mxCell id="IxoI0bGfIbi6MGj2JMH9-226" value="" style="shape=waypoint;sketch=0;size=6;pointerEvents=1;points=[];fillColor=none;resizable=0;rotatable=0;perimeter=centerPerimeter;snapToPoint=1;" parent="WIyWlLk6GJQsqaUBKTNV-1" vertex="1">
          <mxGeometry x="481" y="1160" width="20" height="20" as="geometry" />
        </mxCell>
        <mxCell id="IxoI0bGfIbi6MGj2JMH9-228" style="edgeStyle=orthogonalEdgeStyle;rounded=0;orthogonalLoop=1;jettySize=auto;html=1;exitX=0.5;exitY=1;exitDx=0;exitDy=0;entryX=1.1;entryY=0.862;entryDx=0;entryDy=0;entryPerimeter=0;" parent="WIyWlLk6GJQsqaUBKTNV-1" source="IxoI0bGfIbi6MGj2JMH9-211" target="IxoI0bGfIbi6MGj2JMH9-226" edge="1">
          <mxGeometry relative="1" as="geometry">
            <Array as="points">
              <mxPoint x="966" y="1170" />
            </Array>
          </mxGeometry>
        </mxCell>
        <mxCell id="IxoI0bGfIbi6MGj2JMH9-231" value="" style="shape=waypoint;sketch=0;size=6;pointerEvents=1;points=[];fillColor=#f8cecc;resizable=0;rotatable=0;perimeter=centerPerimeter;snapToPoint=1;strokeColor=#b85450;" parent="WIyWlLk6GJQsqaUBKTNV-1" vertex="1">
          <mxGeometry x="796" y="450" width="20" height="20" as="geometry" />
        </mxCell>
        <mxCell id="IxoI0bGfIbi6MGj2JMH9-240" style="edgeStyle=orthogonalEdgeStyle;rounded=0;orthogonalLoop=1;jettySize=auto;html=1;exitX=0;exitY=0.5;exitDx=0;exitDy=0;entryX=0.797;entryY=0.612;entryDx=0;entryDy=0;entryPerimeter=0;fillColor=#f8cecc;strokeColor=#b85450;" parent="WIyWlLk6GJQsqaUBKTNV-1" edge="1">
          <mxGeometry relative="1" as="geometry">
            <mxPoint x="927" y="459.9999999999999" as="sourcePoint" />
            <mxPoint x="807" y="459.9999999999999" as="targetPoint" />
          </mxGeometry>
        </mxCell>
        <mxCell id="knrro-001IRyhYTyoMfD-1" value="" style="endArrow=classic;html=1;rounded=0;exitX=1;exitY=1;exitDx=0;exitDy=0;" edge="1" parent="WIyWlLk6GJQsqaUBKTNV-1">
          <mxGeometry width="50" height="50" relative="1" as="geometry">
            <mxPoint x="202" y="106" as="sourcePoint" />
            <mxPoint x="233" y="106" as="targetPoint" />
          </mxGeometry>
        </mxCell>
      </root>
    </mxGraphModel>
  </diagram>
</mxfile>
